<?xml version="1.0" encoding="UTF-8" standalone="no"?>
<svg
   height="1875"
   viewBox="-48.583132 -136.22853 659.62187 591.85033"
   width="1875"
   version="1.1"
   id="svg87"
   sodipodi:docname="openapi4aws.svg"
   inkscape:version="1.1.1 (eb90963e84, 2021-10-02)"
   xmlns:inkscape="http://www.inkscape.org/namespaces/inkscape"
   xmlns:sodipodi="http://sodipodi.sourceforge.net/DTD/sodipodi-0.dtd"
   xmlns="http://www.w3.org/2000/svg"
   xmlns:svg="http://www.w3.org/2000/svg">
  <defs
     id="defs91" />
  <sodipodi:namedview
     id="namedview89"
     pagecolor="#ffffff"
     bordercolor="#666666"
     borderopacity="1.0"
     inkscape:pageshadow="2"
     inkscape:pageopacity="0.0"
     inkscape:pagecheckerboard="0"
     showgrid="false"
     inkscape:zoom="0.55220228"
     inkscape:cx="834.839"
     inkscape:cy="937.15657"
     inkscape:window-width="1551"
     inkscape:window-height="1314"
     inkscape:window-x="1243"
     inkscape:window-y="97"
     inkscape:window-maximized="0"
     inkscape:current-layer="svg87"
     height="1950px" />
  <path
     d="M 144.28565,226.55466 H -14.004347 c 0.03,0.78 0.05,1.55 0.09,2.32 0.06,1.49 0.17,2.97 0.26,4.46 0.04,0.64 0.07,1.28 0.12,1.91 0.12,1.72 0.27,3.44 0.43,5.15 0.04,0.39 0.07,0.78 0.11,1.15 0.18,1.91 0.39,3.82 0.61,5.71 0.01,0.18 0.03,0.37 0.06,0.55 0.25,2.04 0.51,4.09 0.81,6.12 0,0.03 0,0.06 0.01,0.08 a 266.05,266.05 0 0 0 8.1799997,37.4 c 0.02,0.05 0.04,0.1 0.05,0.15 0.57,1.94 1.17,3.86 1.78,5.77 0.04,0.11 0.08,0.23 0.11,0.34 0.03,0.11 0.07,0.22 0.11,0.34 0.55999998,1.73 1.14999998,3.45 1.73999998,5.18 0.15,0.43 0.3,0.87 0.46,1.31 0.53000002,1.49 1.07000002,2.98 1.63000002,4.48 0.26,0.67 0.51,1.34 0.76,2.02 0.49,1.24 0.96,2.47 1.45,3.7 0.37,0.93 0.75,1.86 1.14,2.78 0.4,0.97 0.8,1.92 1.21,2.89 0.5,1.18 1.03,2.35 1.55,3.53 0.31,0.7 0.63,1.39 0.94,2.09 0.6400003,1.41 1.3000003,2.82 1.9700003,4.22 0.22,0.45 0.43,0.9 0.65,1.34 0.78,1.62 1.57,3.21 2.37,4.8 0.14,0.24 0.25,0.49 0.38,0.73 0.9,1.76 1.82,3.51 2.77,5.25 0.04,0.08 0.09,0.15 0.12,0.24 0.2,0.36 0.42,0.71 0.62,1.07 l 135.189997,-81.43 0.5,-0.3 c -5.33,-11.24 -8.65,-23.2 -9.89,-35.35 z"
     fill="#93d500"
     id="path67" />
  <path
     d="m 183.19565,299.22466 -0.38,0.38 -111.499997,111.49 c 0.57,0.53 1.14,1.08 1.73,1.59 1.04,0.95 2.1,1.88 3.15,2.81 0.55,0.48 1.08,0.96 1.63,1.44 1.26,1.09 2.54,2.15 3.81,3.22 0.35,0.29 0.68,0.57 1.03,0.86 a 255.576,255.576 0 0 0 4.91,3.94 c 1.58,1.25 3.17,2.46 4.79,3.68 0.07,0.04 0.12,0.08 0.18,0.13 a 266.48,266.48 0 0 0 20.859997,14.1 c 0.24,0.16 0.49,0.3 0.74,0.46 1.37,0.81 2.73,1.62 4.11,2.42 l 2.52,1.44 c 0.8,0.46 1.59,0.9 2.39,1.34 1.45,0.79 2.9,1.58 4.36,2.35 0.2,0.11 0.4,0.22 0.61,0.32 4.05,2.12 8.17,4.09 12.33,5.99 l 3.96,-9.61 56.08,-136.17 0.2,-0.5 c -6.12,-3.28 -11.99,-7.16 -17.51,-11.68 z"
     fill="#4d5a31"
     id="path69" />
  <path
     d="m 171.58565,288.11466 a 95.492,95.492 0 0 1 -3.48,-4.1 c -1,-1.23 -1.96,-2.47 -2.89,-3.73 -1.07,-1.44 -2.11,-2.9 -3.1,-4.38 -0.99,-1.49 -1.97,-2.99 -2.89,-4.51 l -135.359997,81.53 c 2.08,3.46 4.24,6.82 6.46,10.14 0.07,0.12 0.14,0.24 0.22,0.35 0.02,0.05 0.05,0.08 0.08,0.13 0.07,0.1 0.14,0.22 0.21,0.33 0.01,0.01 0.02,0.02 0.02,0.04 0.18,0.26 0.36,0.52 0.54,0.79 0.01,0.01 0.02,0.03 0.04,0.05 0.02,0.02 0.01,0.01 0.01,0.02 2.35,3.47 4.77,6.89 7.26,10.23 0.05,0.07 0.11,0.14 0.16,0.21 0.06,0.07 0.11,0.14 0.16,0.21 1.09,1.43 2.17,2.86 3.29,4.28 0.15,0.19 0.29,0.37 0.45,0.55 1.14,1.47 2.31,2.92 3.5,4.35 0.28,0.34 0.57,0.68 0.85,1.03 1.07,1.28 2.14,2.55 3.23,3.81 0.47,0.54 0.95,1.09 1.43,1.62 0.93,1.06 1.85,2.12 2.8,3.16 0.52,0.57 1.06,1.15 1.59,1.72 0.24,0.27 0.48,0.52 0.73,0.79 0.69,0.75 1.38,1.5 2.08,2.24 0.28,0.29 0.58,0.58 0.86,0.88 1.23,1.28 2.48,2.57 3.74,3.83 l 111.669997,-111.65 c -1.28,-1.28 -2.48,-2.6 -3.66,-3.92 z"
     fill="#6ba43a"
     id="path71" />
  <path
     d="m 319.59565,299.16466 c -1.23,0.99 -2.47,1.96 -3.73,2.89 l 0.27,0.47 81.42,135.13 c 3.77,-2.46 7.5,-5 11.14,-7.67 7.88,-5.81 15.5,-12.11 22.85,-18.89 l -111.51,-111.49 z"
     fill="#4d5a31"
     id="path73" />
  <path
     d="m 385.72565,438.76466 -2.76,-4.59 -76,-126.13 c -1.54,0.92 -3.11,1.76 -4.68,2.6 -1.59,0.86 -3.18,1.65 -4.8,2.42 -14.6,6.92 -30.4,10.46 -46.23,10.46 -10.37,0 -20.73,-1.5 -30.75,-4.49 -1.71,-0.51 -3.38,-1.18 -5.06,-1.78 -1.69,-0.59 -3.4,-1.11 -5.06,-1.79 l -56.04,136.08 -2.19,5.33 -1.88,4.57 -0.01,0.02 c 0.14,0.06 0.29,0.11 0.43,0.17 0.16,0.06 0.31,0.11 0.46,0.18 h 0.02 c 0.04,0.02 0.08,0.03 0.11,0.04 1.32,0.55 2.65,1.01 3.98,1.53 1.67,0.65 3.33,1.31 5,1.92 0.86,0.31 1.7,0.67 2.55,0.97 h 0.01 a 267.42,267.42 0 0 0 54.19,12.97 c 0.73,0.09 1.44,0.19 2.17,0.29 0.75,0.09 1.51,0.16 2.27,0.25 1.42,0.16 2.84,0.32 4.27,0.46 l 1.06,0.09 c 1.75,0.17 3.5,0.32 5.24,0.44 0.6,0.05 1.2,0.07 1.79,0.12 1.53,0.1 3.06,0.19 4.59,0.26 0.94,0.06 1.88,0.08 2.82,0.12 1.22,0.04 2.43,0.09 3.65,0.13 1.75,0.04 3.52,0.05 5.28,0.06 0.42,0 0.83,0.01 1.25,0.02 14.75,0 29.5,-1.23 44.09,-3.68 0.24,-0.04 0.49,-0.08 0.74,-0.11 1.54,-0.27 3.08,-0.56 4.62,-0.84 0.88,-0.17 1.77,-0.34 2.63,-0.51 0.9,-0.19 1.81,-0.37 2.71,-0.57 1.5,-0.31 3,-0.64 4.51,-0.99 0.27,-0.06 0.54,-0.11 0.81,-0.19 22.18,-5.16 43.6,-13.16 63.72,-23.75 v -0.01 c 1.32,-0.69 2.61,-1.48 3.92,-2.2 1.56,-0.85 3.11,-1.74 4.67,-2.63 1.07,-0.61 2.16,-1.18 3.23,-1.82 0.01,-0.01 0.02,-0.02 0.03,-0.02 h 0.01 c 0.02,-0.01 0.03,-0.02 0.05,-0.03 l 0.02,-0.02 -0.2,-0.33 0.2,0.33 c 0.01,0 0.02,-0.01 0.03,-0.01 0.02,-0.01 0.03,-0.02 0.05,-0.03 0.06,-0.04 0.12,-0.07 0.18,-0.11 0.34,-0.21 0.69,-0.41 1.04,-0.62 z m -202.47,-306.22 c 1.23,-1 2.48,-1.96 3.73,-2.9 l -0.27,-0.46 -81.42,-135.1399965 c -3.78,2.4700001 -7.509997,5.0200001 -11.159997,7.6900001 -7.87,5.8 -15.5,12.0900004 -22.83,18.8600004 L 182.81565,132.09466 Z"
     fill="#93d500"
     id="path75" />
  <path
     d="m 63.575653,28.024664 c -1.27,1.27 -2.47,2.58 -3.71,3.86 -1.23,1.29 -2.49,2.57 -3.7,3.87 a 266.156,266.156 0 0 0 -22.56,27.96 c -0.33,0.45 -0.65,0.93 -0.98,1.39 -0.76,1.12 -1.52,2.23 -2.26,3.35 -0.78,1.16 -1.55,2.34 -2.3,3.51 -0.28,0.43 -0.56,0.87 -0.83,1.3 -25.6500003,40.229996 -39.39,85.859996 -41.24,131.869996 -0.07,1.79 -0.11,3.58 -0.15,5.36 -0.03,1.78 -0.09,3.57 -0.09,5.35 H 143.68565 c 0,-1.78 0.16,-3.56 0.26,-5.35 0.09,-1.79 0.11,-3.58 0.29,-5.36 2.04,-20.56 9.98,-40.64 23.82,-57.5 1.12,-1.37 2.39,-2.66 3.6,-3.98 1.19,-1.33 2.31,-2.7 3.59,-3.98 z m 325.849997,-39.2 c -0.21,-0.13 -0.44,-0.26 -0.65,-0.39 -1.39,-0.85 -2.79,-1.67 -4.2,-2.49 -0.81,-0.47 -1.63,-0.93 -2.44,-1.39 -0.83,-0.46 -1.64,-0.92 -2.47,-1.37 a 901.4,901.4 0 0 0 -4.29,-2.32 c -0.23,-0.11 -0.45,-0.23 -0.68,-0.35 -9.26,-4.84 -18.77,-9.1 -28.48,-12.8 -0.25,-0.1 -0.5,-0.2 -0.75,-0.29 -2.12,-0.79 -4.24,-1.58 -6.38,-2.32 a 267.084,267.084 0 0 0 -53.21,-12.63 l -2.22,-0.3 c -0.75,-0.09 -1.49,-0.16 -2.23,-0.24 -1.43,-0.17 -2.85,-0.33 -4.29,-0.47 -0.39,-0.04 -0.79,-0.06 -1.2,-0.11 -1.69,-0.15 -3.4,-0.3 -5.1,-0.43 l -1.99,-0.12 c -1.45,-0.09 -2.93,-0.2 -4.38,-0.26 -0.78,-0.04 -1.56,-0.07 -2.33,-0.09 V 108.74466 c 8.12,0.84 16.17,2.57 23.98,5.22 l 116.51,-116.4899964 c -4.33,-3.0000001 -8.7,-5.9200001 -13.2,-8.6499996 z"
     fill="#4d5a31"
     id="path77" />
  <path
     d="m 246.07565,-49.675336 c -1.79,0.04 -3.58,0.04 -5.36,0.11 -11.17,0.45 -22.32,1.59 -33.38,3.45 -0.24,0.04 -0.48,0.08 -0.73,0.12 -1.55,0.27 -3.09,0.55 -4.63,0.84 -0.87,0.17 -1.75,0.33 -2.63,0.5 -0.91,0.18 -1.81,0.37 -2.72,0.57 -1.5,0.31 -3,0.64 -4.49,0.99 -0.28,0.05 -0.55,0.12 -0.82,0.18 a 267.465,267.465 0 0 0 -63.73,23.76 c -1.31,0.7 -2.59,1.49 -3.9,2.2 -1.56,0.86 -3.12,1.74 -4.67,2.63 -1.15,0.67 -2.32,1.28 -3.47,1.96 -0.01,0.01 -0.03,0.02 -0.04,0.02 -0.08,0.05 -0.16,0.1 -0.24,0.14 -0.3,0.19 -0.61,0.34 -0.91,0.52 l 0.01,0.02 2.77,4.5899995 78.75,130.7299965 c 1.54,-0.92 3.11,-1.77 4.68,-2.61 1.58,-0.85 3.18,-1.65 4.79,-2.41 a 107.25,107.25 0 0 1 35.36,-9.91 c 1.78,-0.18 3.56,-0.33 5.35,-0.42 1.78,-0.09 3.57,-0.18 5.36,-0.18 V -49.785336 c -1.79,0 -3.57,0.08 -5.35,0.11 z"
     fill="#6ba43a"
     id="path79" />
  <path
     d="m 516.76565,202.79466 c -0.08,-1.42 -0.16,-2.83 -0.26,-4.26 a 75.4,75.4 0 0 0 -0.14,-2.12 c -0.11,-1.67 -0.25,-3.34 -0.41,-5.01 -0.03,-0.43 -0.07,-0.86 -0.11,-1.29 -0.18,-1.87 -0.38,-3.73 -0.6,-5.59 -0.02,-0.15 -0.03,-0.3 -0.05,-0.45 l -0.03,-0.21 c -0.24,-2.01 -0.51,-4.02 -0.79,-6.02 l -0.03,-0.19 a 266.454,266.454 0 0 0 -8.16,-37.33 c -0.03,-0.09 -0.05,-0.16 -0.08,-0.24 -0.57,-1.91 -1.16,-3.8 -1.75,-5.69 -0.09,-0.25 -0.17,-0.5 -0.25,-0.75 -0.56,-1.71 -1.13,-3.41 -1.72,-5.11 l -0.48,-1.38 c -0.52,-1.47 -1.06,-2.94 -1.6,-4.41 -0.27,-0.7 -0.53,-1.4 -0.81,-2.09 -0.46,-1.22 -0.93,-2.43 -1.42,-3.63 -0.38,-0.97 -0.77,-1.92 -1.16,-2.86 -0.39,-0.95 -0.79,-1.88 -1.18,-2.82 -0.52,-1.2 -1.05,-2.4 -1.58,-3.59 -0.3,-0.67 -0.6,-1.35 -0.91,-2.03 -0.65,-1.42 -1.32,-2.85 -1.99,-4.27 -0.21,-0.42 -0.42,-0.86 -0.63,-1.29 -0.78,-1.619996 -1.58,-3.249996 -2.4,-4.849996 -0.11,-0.22 -0.23,-0.45 -0.34,-0.67 -0.91,-1.77 -1.85,-3.55 -2.79,-5.3 -0.04,-0.06 -0.07,-0.13 -0.11,-0.19 a 266.99,266.99 0 0 0 -15.11,-24.52 l -116.54,116.539996 c 2.65,7.81 4.37,15.86 5.21,23.97 h 158.32 c -0.04,-0.79 -0.06,-1.58 -0.1,-2.35 z"
     fill="#4d5a31"
     id="path81" />
  <path
     d="m 359.16565,215.84466 c 0,1.79 -0.17,3.57 -0.26,5.36 -0.09,1.79 -0.12,3.58 -0.3,5.35 -2.04,20.57 -9.97,40.65 -23.81,57.52 -1.12,1.37 -2.39,2.65 -3.6,3.98 -1.2,1.32 -2.31,2.69 -3.59,3.97 l 111.67,111.65 c 1.27,-1.27 2.46,-2.58 3.7,-3.87 1.24,-1.29 2.5,-2.56 3.7,-3.87 8.26,-8.95 15.82,-18.31 22.62,-28.04 0.28,-0.39 0.53,-0.77 0.8,-1.15 0.83,-1.19 1.63,-2.4 2.45,-3.6 0.71,-1.08 1.42,-2.15 2.11,-3.24 0.35,-0.52 0.69,-1.06 1.02,-1.58 25.61,-40.21 39.32,-85.79 41.16,-131.77 0.07,-1.78 0.11,-3.57 0.14,-5.36 0.04,-1.78 0.09,-3.56 0.09,-5.35 z"
     fill="#6ba43a"
     id="path83" />
  <path
     d="m 563.98565,-96.68534 c -28.89,-28.89 -75.73,-28.89 -104.62,0 -23.05,23.040004 -27.66,57.490004 -13.93,85.150004 l -161.16,161.149996 c -27.66,-13.72 -62.12,-9.12 -85.17,13.92 -28.89,28.89 -28.88,75.73 0,104.62 28.9,28.89 75.75,28.88 104.64,0 23.05,-23.05 27.65,-57.5 13.92,-85.16 l 161.16,-161.139996 c 27.67,13.72 62.11,9.12 85.16,-13.9300004 28.89,-28.8799996 28.89,-75.7199996 0,-104.6100036 z"
     fill="#424143"
     id="path85" />
  <path
     d="m 594.50089,-68.691487 -42.70502,1.769313 -27.68282,-1.765877 45.78875,-4.388545 24.59909,4.385109"
     fill="#634b1e"
     id="path253"
     style="stroke-width:0.687108" />
  <path
     d="m 569.80286,-71.159551 24.69803,2.468064 v -49.750593 l -24.69803,-12.35074 -1.89641,2.04758 v 55.468718 l 1.89641,2.116971"
     fill="#d9a740"
     id="path255"
     style="stroke-width:0.687108" />
  <path
     d="m 524.11305,-118.47094 45.68981,-12.36585 v 59.677239 l -45.68981,2.4715 v -49.782889"
     fill="#886a2a"
     id="path257"
     style="stroke-width:0.687108" />
  <path
     d="m 418.60173,-68.691487 42.70502,1.769313 27.68282,-1.765877 -45.6582,-4.890116 -24.72964,4.88668"
     fill="#634b1e"
     id="path259"
     style="stroke-width:0.687108" />
  <path
     d="m 443.29976,-71.159551 -24.69803,2.394561 v -49.90109 l 24.69803,-12.33012 1.13716,2.12385 v 55.848674 l -1.13716,1.864125"
     fill="#886a2a"
     id="path261"
     style="stroke-width:0.687108" />
  <path
     d="m 488.98957,-118.47094 -45.68981,-12.36585 v 59.677239 l 45.68981,2.4715 v -49.782889"
     fill="#d9a740"
     id="path263"
     style="stroke-width:0.687108" />
  <g
     id="g271"
     transform="matrix(0.68710611,0,0,0.68710611,418.60173,-162.85387)">
    <path
       d="m 256,174.486 -62.152,-2.576 -40.289,2.571 66.35,6.707 36.091,-6.702"
       fill="#fad791"
       id="path265" />
    <path
       d="M 220.055,178.078 256,174.486 v 72.405 l -35.945,17.975 -1.888,-4.111 v -78.983 l 1.888,-3.694"
       fill="#d9a740"
       id="path267" />
    <path
       d="m 153.559,246.934 66.496,17.997 v -86.853 l -66.496,-3.597 v 72.453"
       fill="#886a2a"
       id="path269" />
  </g>
  <g
     id="g279"
     transform="matrix(0.68710611,0,0,0.68710611,418.60173,-162.85387)">
    <path
       d="m 0,174.486 62.152,-2.576 40.289,2.571 L 35.51,181.769 0,174.486"
       fill="#fad791"
       id="path273" />
    <path
       d="M 35.945,178.078 0,174.486 v 72.405 l 35.945,17.975 2.179,-3.24 v -79.857 l -2.179,-3.691"
       fill="#886a2a"
       id="path275" />
    <path
       d="m 102.441,246.934 -66.496,17.997 v -86.853 l 66.496,-3.597 v 72.453"
       fill="#d9a740"
       id="path277" />
  </g>
  <g
     id="g293"
     transform="matrix(0.68710611,0,0,0.68710611,418.60173,-162.85387)">
    <path
       d="m 95.553,106.629 32.966,-5.781 65.814,9.319 5.669,3.261 -31.966,3.498 -72.483,-10.297"
       fill="#634b1e"
       id="path281" />
    <path
       d="m 160.447,106.629 -32.966,-5.781 -68.648,10.652 -2.835,1.928 31.966,3.498 72.483,-10.297"
       fill="#634b1e"
       id="path283" />
    <path
       d="m 95.553,204.899 32.966,5.781 65.648,-9.18 5.835,-3.4 -31.966,-3.498 -72.483,10.297"
       fill="#fad791"
       id="path285" />
    <path
       d="m 160.447,204.899 -32.966,5.781 -69.148,-9.847 -2.335,-2.733 31.966,-3.498 72.483,10.297"
       fill="#fad791"
       id="path287" />
    <path
       d="M 200.002,113.428 V 77.641 L 166.289,66.616 V 19.776 L 128,0.634 v 0.001 l -1.597,2.543 -0.291,302.588 1.888,3.891 38.289,-19.142 v -45.603 l 33.713,-11.025 V 198.1 l -33.713,5.935 v -96.542 l 33.713,5.935"
       fill="#d9a740"
       id="path289" />
    <path
       d="m 89.711,19.776 v 46.84 L 55.998,77.641 v 35.787 l 33.713,-5.935 v 96.542 L 55.998,198.1 v 35.787 l 33.713,11.025 v 45.603 L 128,309.657 V 0.634 L 89.711,19.776"
       fill="#886a2a"
       id="path291" />
  </g>
</svg>
